<svg xmlns="http://www.w3.org/2000/svg" width="112.62" height="93.18" viewBox="0 0 112.62 93.18"><defs><style>.a{isolation:isolate;}.b{fill:#fff;}</style></defs><title>qoute-marks</title><g class="a"><path class="b" d="M21.43,0q13.2,0,19.8,9.59t6.61,26.79q0,18.67-9.47,33T9,93.18L0,74.75q12-5.23,17.94-12.84t6-18.81a8.6,8.6,0,0,1-2.49.25,22.21,22.21,0,0,1-15.2-5.48Q0,32.39,0,22.92,0,12.46,6,6.23T21.43,0ZM86.21,0Q99.41,0,106,9.59t6.61,26.79q0,18.67-9.47,33T73.75,93.18l-9-18.43q12-5.23,17.94-12.84t6-18.81a8.6,8.6,0,0,1-2.49.25A22.21,22.21,0,0,1,71,37.87q-6.23-5.48-6.23-14.95,0-10.46,6-16.69T86.21,0Z"/></g></svg>